HIERARCHY
ROOT Hips
{
	OFFSET 0.000000 0.000000 0.000000
	CHANNELS 6 Xposition Yposition Zposition Zrotation Yrotation Xrotation 
	JOINT Chest
	{
		OFFSET 0.000000 1.323760 0.000000
		CHANNELS 3 Zrotation Yrotation Xrotation
		JOINT Chest2
		{
			OFFSET 0.000000 1.323760 0.000000
			CHANNELS 3 Zrotation Yrotation Xrotation
			JOINT Chest3
			{
				OFFSET 0.000000 1.285570 0.000000
				CHANNELS 3 Zrotation Yrotation Xrotation
				JOINT Neck
				{
					OFFSET 0.000000 1.285570 0.000000
					CHANNELS 3 Zrotation Yrotation Xrotation
					JOINT Head
					{
						OFFSET 0.000000 0.851060 0.000000
						CHANNELS 3 Zrotation Yrotation Xrotation
						End Site
						{
							OFFSET 0.000000 0.000000 0.000000
						}
					}
				}
				JOINT RightCollar
				{
					OFFSET -0.200000 1.285570 0.000000
					CHANNELS 3 Zrotation Yrotation Xrotation
					JOINT RightShoulder
					{
						OFFSET -1.439230 0.000000 0.000000
						CHANNELS 3 Zrotation Yrotation Xrotation
						JOINT RightElbow
						{
							OFFSET 0.000000 -3.065320 0.000000
							CHANNELS 3 Zrotation Yrotation Xrotation
							JOINT RightWrist
							{
								OFFSET 0.000000 -2.183900 0.000000
								CHANNELS 3 Zrotation Yrotation Xrotation
								JOINT RightFinger0
								{
									OFFSET 0.000000 -0.752930 0.000000
									CHANNELS 3 Zrotation Yrotation Xrotation
									End Site
									{
										OFFSET 0.000000 0.000000 0.000000
									}
								}
							}
						}
					}
				}
				JOINT LeftCollar
				{
					OFFSET 0.200000 1.285570 0.000000
					CHANNELS 3 Zrotation Yrotation Xrotation
					JOINT LeftShoulder
					{
						OFFSET 1.439230 0.000000 0.000000
						CHANNELS 3 Zrotation Yrotation Xrotation
						JOINT LeftElbow
						{
							OFFSET 0.000000 -3.065320 0.000000
							CHANNELS 3 Zrotation Yrotation Xrotation
							JOINT LeftWrist
							{
								OFFSET 0.000000 -2.183900 0.000000
								CHANNELS 3 Zrotation Yrotation Xrotation
								JOINT LeftFinger0
								{
									OFFSET 0.000000 -0.752930 0.000000
									CHANNELS 3 Zrotation Yrotation Xrotation
									End Site
									{
										OFFSET 0.000000 0.000000 0.000000
									}
								}
							}
						}
					}
				}
			}
		}
	}
	JOINT RightHip
	{
		OFFSET -0.926530 0.000000 0.000000
		CHANNELS 3 Zrotation Yrotation Xrotation
		JOINT RightKnee
		{
			OFFSET 0.000000 -4.205550 0.000000
			CHANNELS 3 Zrotation Yrotation Xrotation
			JOINT RightAnkle
			{
				OFFSET 0.000000 -3.959220 0.000000
				CHANNELS 3 Zrotation Yrotation Xrotation
				JOINT RightToe
				{
					OFFSET 0.021930 -0.909920 1.062280
					CHANNELS 3 Zrotation Yrotation Xrotation
					End Site
					{
						OFFSET 0.000000 0.000000 0.000000
					}
				}
			}
		}
	}
	JOINT LeftHip
	{
		OFFSET 0.926530 0.000000 0.000000
		CHANNELS 3 Zrotation Yrotation Xrotation
		JOINT LeftKnee
		{
			OFFSET 0.000000 -4.205550 0.000000
			CHANNELS 3 Zrotation Yrotation Xrotation
			JOINT LeftAnkle
			{
				OFFSET 0.000000 -3.959220 0.000000
				CHANNELS 3 Zrotation Yrotation Xrotation
				JOINT LeftToe
				{
					OFFSET 0.021930 -0.909920 1.062280
					CHANNELS 3 Zrotation Yrotation Xrotation
					End Site
					{
						OFFSET 0.000000 0.000000 0.000000
					}
				}
			}
		}
	}
}
MOTION
Frames: 15
Frame Time: 0.008333
-0.563700 9.321460 19.023010 -0.079070 4.045371 -10.530149 -6.260011 -5.049821 21.516483 0.000000 0.000000 2.665371 0.000000 0.000000 0.000000 0.000000 0.000000 0.000000 7.494346 -5.654212 -5.389518 13.591737 -5.970978 -0.004301 -20.384795 17.670490 12.687747 -0.000151 -0.000170 -98.915660 -9.038276 26.414825 -4.715395 0.000000 0.000000 0.000000 -11.392424 2.956150 -0.018845 39.940065 -24.623623 10.229485 0.000072 0.000013 -110.238911 3.661760 -15.130953 -1.182931 0.000000 0.000000 0.000000 -3.157394 -8.498375 -19.134778 -0.000074 0.000004 96.488880 4.150263 -3.823408 -4.704934 -0.022651 -0.071489 5.782440 -3.673283 2.770863 -7.579122 0.000000 0.000000 42.281102 5.406649 -1.786836 -24.286298 0.000000 0.000000 0.000000 
-0.564610 9.313450 19.140400 0.049999 4.634767 -10.314090 -6.682111 -5.710451 21.369087 0.000000 0.000000 2.690929 0.000000 0.000000 0.000000 0.000000 0.000000 0.000000 7.747530 -5.778939 -5.146634 13.793334 -5.953394 -0.004620 -19.714510 16.570538 13.600805 -0.000151 -0.000168 -98.118053 -10.724514 28.190540 -5.306126 0.000000 0.000000 0.000000 -11.034534 2.407996 -0.022329 39.937666 -24.092270 8.926588 -0.000002 0.000013 -110.441432 3.513676 -15.325443 -1.230212 0.000000 0.000000 0.000000 -3.209608 -8.992874 -20.808710 -0.000074 0.000005 97.391415 3.795795 -3.892896 -5.239452 -0.021670 -0.066617 5.302720 -3.797720 2.306511 -6.998897 0.000000 0.000000 42.279724 5.395363 -1.868242 -25.041159 0.000000 0.000000 0.000000 
-0.565440 9.313180 19.263310 -0.109726 5.181625 -10.309802 -6.674144 -6.284158 21.379586 0.000000 0.000000 2.756887 0.000000 0.000000 0.000000 0.000000 0.000000 0.000000 7.734940 -6.020369 -5.057835 13.926745 -6.280831 -0.004846 -19.289914 15.740723 14.342900 -0.000151 -0.000167 -97.572063 -12.124914 29.074082 -5.919812 0.000000 0.000000 0.000000 -10.781613 1.700742 -0.024864 39.868655 -23.483001 7.817550 -0.000002 0.000013 -110.813690 3.433000 -15.654172 -1.294655 0.000000 0.000000 0.000000 -3.006076 -9.487442 -22.098278 -0.000074 0.000005 97.825651 3.532726 -3.908621 -5.726997 -0.020819 -0.062540 4.907606 -3.635748 1.755004 -6.110268 0.000000 0.000000 42.115541 5.343796 -1.874173 -25.747177 0.000000 0.000000 0.000000 
-0.563570 9.309770 19.377490 0.000941 5.779380 -9.780088 -7.055250 -7.241592 21.019947 0.000000 0.000000 2.692305 0.000000 0.000000 0.000000 0.000000 0.000000 0.000000 7.851932 -5.754578 -4.997657 14.084157 -6.254050 -0.005106 -19.044538 14.985905 15.273051 -0.000151 -0.000167 -97.471675 -12.705358 29.066594 -6.183464 0.000000 0.000000 0.000000 -10.294516 1.580125 -0.029674 39.551003 -23.055190 6.612170 0.000003 -0.000013 -111.253526 3.646795 -15.913755 -1.295606 0.000000 0.000000 0.000000 -2.973989 -9.951309 -23.919176 0.000074 -0.000005 98.080260 3.401186 -3.875305 -6.252103 -0.020269 -0.061008 4.779961 -3.818087 1.032522 -5.750926 0.000000 0.000000 41.870434 5.257298 -1.746894 -26.332595 0.000000 0.000000 0.000000 
-0.561480 9.312280 19.497930 -0.150237 6.221163 -9.772214 -6.997968 -7.780983 21.051060 0.000000 0.000000 2.783254 0.000000 0.000000 0.000000 0.000000 0.000000 0.000000 7.817808 -5.709070 -5.153716 14.161121 -6.605396 -0.005256 -18.990552 14.325061 15.993272 -0.000151 -0.000167 -97.627392 -12.499437 28.398860 -6.122452 0.000000 0.000000 0.000000 -9.791579 0.932448 -0.034690 38.974680 -22.431237 5.767739 -0.000071 -0.000014 -111.789148 3.789818 -16.029234 -1.470096 0.000000 0.000000 0.000000 -2.769286 -10.318933 -25.030463 0.000000 0.000005 97.825180 3.275299 -3.761673 -6.537070 -0.019428 -0.056604 4.352091 -3.706111 0.430118 -4.781525 0.000000 0.000000 41.496595 5.159351 -1.603421 -26.910654 0.000000 0.000000 0.000000 
-0.558350 9.317900 19.617640 -0.279675 6.635168 -9.721117 -7.005997 -8.462529 21.142461 0.000000 0.000000 2.762433 0.000000 0.000000 0.000000 0.000000 0.000000 0.000000 7.790324 -5.384444 -5.351429 14.233862 -6.896852 -0.005401 -19.126269 14.011848 16.665462 -0.000151 -0.000168 -97.963931 -12.020651 27.092576 -5.781112 0.000000 0.000000 0.000000 -9.322668 0.519155 -0.039448 38.377328 -21.870730 5.030730 0.000003 -0.000014 -112.422074 4.107426 -16.094090 -1.577367 0.000000 0.000000 0.000000 -2.570198 -10.625919 -26.062695 -0.000000 -0.000005 97.239300 3.272435 -3.548756 -6.893335 -0.019021 -0.056384 4.362276 -3.633130 -0.187247 -3.773561 0.000000 0.000000 40.940205 5.048085 -1.423007 -27.386141 0.000000 0.000000 0.000000 
-0.553580 9.326120 19.736900 -0.393380 7.008794 -9.623668 -7.030153 -9.226718 21.250620 0.000000 0.000000 2.659324 0.000000 0.000000 0.000000 0.000000 0.000000 0.000000 7.737589 -4.862515 -5.559565 14.303258 -7.117926 -0.005542 -19.409547 13.962311 17.320422 -0.000151 -0.000169 -98.424984 -11.439834 25.486420 -5.292980 0.000000 0.000000 0.000000 -8.923493 0.270676 -0.043592 37.777248 -21.371135 4.428408 0.000003 -0.000015 -113.105105 4.461806 -16.011450 -1.673775 0.000000 0.000000 0.000000 -2.390422 -10.892192 -27.010499 0.000000 0.000004 96.304588 3.351529 -3.224194 -7.212513 -0.018832 -0.058325 4.598159 -3.595257 -0.805406 -2.734963 0.000000 0.000000 40.217128 4.929738 -1.203216 -27.770327 0.000000 0.000000 0.000000 
-0.548780 9.336760 19.854410 -0.515913 7.297184 -9.432859 -7.064615 -10.111413 21.347967 0.000000 0.000000 2.442160 0.000000 0.000000 0.000000 0.000000 0.000000 0.000000 7.638290 -4.102571 -5.753570 14.455571 -7.012553 -0.005804 -19.854879 13.940726 18.107198 -0.000151 -0.000170 -99.031350 -10.688927 23.862472 -4.727208 0.000000 0.000000 0.000000 -8.732206 0.305338 -0.045762 37.424264 -21.007429 3.885135 0.000003 -0.000015 -113.855845 4.967966 -15.635267 -1.644877 0.000000 0.000000 0.000000 -2.155715 -11.055080 -27.944957 -0.000074 0.000003 95.011572 3.507008 -2.829957 -7.414444 -0.018714 -0.060882 4.898074 -3.522229 -1.299613 -1.736549 0.000000 0.000000 39.355078 4.829663 -1.033984 -28.080228 0.000000 0.000000 0.000000 
-0.544300 9.386630 19.978440 -0.656391 7.517961 -9.201771 -6.995598 -10.896682 21.313562 0.000000 0.000000 2.288356 0.000000 0.000000 0.000000 0.000000 0.000000 0.000000 7.534328 -3.397197 -5.954259 14.513951 -7.078388 -0.005930 -20.284021 14.173118 18.723398 -0.000151 -0.000171 -99.512778 -10.169814 22.312760 -4.416578 0.000000 0.000000 0.000000 -8.524928 0.235217 -0.048112 36.902200 -20.608512 3.572070 -0.000003 0.000015 -114.567959 5.332653 -15.304068 -1.690298 0.000000 0.000000 0.000000 -1.888071 -11.187325 -28.762468 0.000000 0.000002 93.364062 3.664604 -2.338253 -7.503978 -0.018348 -0.061063 4.949795 -3.435446 -1.751139 -0.955987 0.000000 0.000000 38.413411 4.745018 -0.850978 -26.295472 -0.019436 -0.000313 -1.843286 
-0.542760 9.442160 20.101470 -1.031753 7.651484 -8.771168 -6.590878 -11.678989 20.931458 0.000000 0.000000 2.245638 0.000000 0.000000 0.000000 0.000000 0.000000 0.000000 7.434010 -2.712509 -6.163519 14.431353 -7.133785 -0.005842 -20.589545 14.441346 19.242319 -0.000150 -0.000172 -99.852452 -9.770736 21.035683 -4.317333 0.000000 0.000000 0.000000 -8.336239 0.237993 -0.050307 36.323775 -20.246323 3.298352 -0.000004 0.000016 -115.183222 5.522801 -14.982637 -1.771948 0.000000 0.000000 0.000000 -1.291737 -11.274404 -29.622202 -0.000000 -0.000001 91.272432 3.810949 -1.817622 -7.341894 -0.017698 -0.058547 4.719853 -3.043073 -2.050168 -0.500716 0.000000 0.000000 37.559706 4.692440 -0.788547 -24.243591 -0.041759 -0.001445 -3.962806 
-0.536690 9.502430 20.228080 -1.041078 7.667353 -8.526643 -6.565653 -12.240334 20.819815 0.000000 0.000000 2.126524 0.000000 0.000000 0.000000 0.000000 0.000000 0.000000 7.317642 -2.102615 -6.359000 14.429595 -7.125706 -0.005875 -20.955826 14.682351 19.772207 -0.000150 -0.000172 -100.235102 -9.264443 20.028315 -4.290760 0.000000 0.000000 0.000000 -8.176786 0.138219 -0.052234 35.760357 -19.889515 3.259289 -0.000004 0.000016 -115.853290 5.770025 -14.719674 -1.695258 0.000000 0.000000 0.000000 -1.135747 -11.220288 -30.121647 0.000000 0.000000 89.031846 3.954742 -1.095573 -7.407747 -0.017279 -0.058222 4.718762 -3.018859 -2.125192 0.284724 0.000000 0.000000 36.420193 4.681372 -0.756451 -21.634803 -0.067990 -0.003837 -6.460676 
-0.533890 9.567300 20.356740 -1.278504 7.505057 -8.159603 -6.212301 -12.703080 20.341153 0.000000 0.000000 2.217992 0.000000 0.000000 0.000000 0.000000 0.000000 0.000000 7.181918 -1.474868 -6.619321 14.370807 -7.065211 -0.005820 -21.272560 14.910549 20.231094 -0.000150 -0.000173 -100.550256 -8.794139 19.462147 -4.302308 0.000000 0.000000 0.000000 -8.127189 0.145539 -0.053081 35.296689 -19.623268 3.215375 0.000070 0.000016 -116.445056 6.005143 -14.465886 -1.690409 0.000000 0.000000 0.000000 -0.660897 -11.013518 -30.584221 0.000000 0.000000 86.419360 4.141255 -0.331434 -7.414151 -0.016990 -0.059173 4.850558 -2.640497 -1.823715 0.872056 0.000000 0.000000 35.305104 4.736201 -0.976320 -18.760313 -0.096966 -0.007831 -9.234447 
-0.529230 9.639030 20.487330 -1.420856 7.371004 -7.817634 -5.955860 -13.201901 19.947194 0.000000 0.000000 2.236382 0.000000 0.000000 0.000000 0.000000 0.000000 0.000000 7.011236 -0.852721 -6.828598 14.307305 -6.968965 -0.005756 -21.594151 15.214251 20.654680 -0.000150 -0.000174 -100.855868 -8.320493 19.136201 -4.293713 0.000000 0.000000 0.000000 -8.068099 0.210215 -0.054032 34.763647 -19.405349 3.322099 -0.000004 0.000017 -117.016168 6.130685 -14.330114 -1.622480 0.000000 0.000000 0.000000 -0.324225 -10.860034 -30.822543 0.000000 0.000000 83.542777 4.320350 0.579238 -7.443714 -0.016928 -0.062225 5.200763 -2.219226 -1.437660 1.576279 0.000000 0.000000 34.165949 4.178491 -1.686886 -16.215880 -0.095806 -0.001868 -9.825003 
-0.523530 9.713870 20.620670 -1.477699 7.111442 -7.499005 -5.701704 -13.442976 19.591613 0.000000 0.000000 2.185493 0.000000 0.000000 0.000000 0.000000 0.000000 0.000000 6.841990 -0.387566 -7.001137 14.151527 -6.870541 -0.005546 -21.742509 15.349013 21.161887 -0.000150 -0.000174 -101.167278 -7.745223 19.142262 -4.288918 0.000000 0.000000 0.000000 -8.000543 0.190657 -0.055075 34.162504 -19.287457 3.586222 -0.000004 0.000017 -117.547010 6.352346 -14.492975 -1.560451 0.000000 0.000000 0.000000 -0.081425 -10.581701 -30.878223 0.000000 0.000000 80.413020 4.720340 1.496117 -7.341016 -0.016955 -0.065922 5.617858 -1.878691 -0.941752 2.361213 0.000000 0.000000 32.871530 3.642352 -2.349463 -13.296530 -0.094764 0.006769 -10.736879 
-0.519990 9.791810 20.757660 -1.676544 6.680011 -7.149105 -5.215764 -13.523787 19.127342 0.000000 0.000000 2.118134 0.000000 0.000000 0.000000 0.000000 0.000000 0.000000 6.564808 0.043038 -7.072284 13.993765 -6.759002 -0.005329 -21.890711 15.514428 21.664439 -0.000149 -0.000175 -101.452024 -7.332480 19.449015 -4.313441 0.000000 0.000000 0.000000 -8.155517 0.141697 -0.053849 33.744988 -19.182437 4.050894 0.000004 -0.000017 -118.100992 6.470645 -14.686913 -1.525085 0.000000 0.000000 0.000000 0.347645 -10.129175 -30.777144 0.000000 0.000000 76.908948 5.239621 2.365517 -6.940360 -0.016626 -0.066426 5.702271 -1.269710 -0.074540 3.087371 0.000000 0.000000 31.582842 2.948898 -3.257036 -10.196610 -0.093888 0.015671 -11.676554 
